<svg width="60" height="60" viewBox="0 0 60 60" fill="none" xmlns="http://www.w3.org/2000/svg">
<circle cx="30" cy="30" r="30" fill="white"/>
<path d="M37.7082 32.9747C36.8686 32.7941 36.2044 33.1839 35.6162 33.5244C35.0139 33.8752 33.8686 34.8043 33.2121 34.5666C29.851 33.1827 26.6899 30.2408 25.3214 26.8662C25.0802 26.1957 26.005 25.0431 26.3532 24.4337C26.6911 23.8438 27.0729 23.1733 26.8988 22.3274C26.7414 21.5672 24.7062 18.9775 23.9865 18.2693C23.5119 17.8015 23.0257 17.5442 22.5265 17.5026C20.6499 17.4221 18.5541 19.926 18.1865 20.5251C17.2656 21.8024 17.2708 23.502 18.202 25.5629C20.4462 31.0984 28.934 39.4523 34.4902 41.7808C35.5156 42.2603 36.4532 42.5007 37.2955 42.5007C38.1196 42.5007 38.8535 42.2707 39.4843 41.8147C39.9601 41.5404 42.5667 39.3406 42.4984 37.4136C42.4571 36.9223 42.2005 36.4312 41.7388 35.9556C41.0358 35.2292 38.4627 33.1333 37.7082 32.9747Z" fill="#64646A"/>
</svg>
