<svg width="60" height="60" viewBox="0 0 60 60" fill="none" xmlns="http://www.w3.org/2000/svg">
<circle cx="30" cy="30" r="30" fill="white"/>
<path d="M34.1429 31.1621L31.7979 33.5151C30.8469 34.4694 29.1737 34.49 28.2021 33.5151L25.857 31.1621L17.4342 39.6122C17.7478 39.7572 18.0934 39.8437 18.4609 39.8437H41.5391C41.9066 39.8437 42.2521 39.7573 42.5655 39.6123L34.1429 31.1621Z" fill="#64646A"/>
<path d="M41.5391 20.1562H18.4609C18.0934 20.1562 17.7478 20.2428 17.4343 20.3877L26.4346 29.4179C26.4352 29.4185 26.436 29.4186 26.4366 29.4192C26.4372 29.4198 26.4373 29.4206 26.4373 29.4206L29.3638 32.3568C29.6746 32.6677 30.3255 32.6677 30.6363 32.3568L33.5622 29.4211C33.5622 29.4211 33.5629 29.4198 33.5635 29.4192C33.5635 29.4192 33.5649 29.4185 33.5655 29.4179L42.5655 20.3877C42.2521 20.2427 41.9066 20.1562 41.5391 20.1562Z" fill="#64646A"/>
<path d="M16.2617 21.5349C16.0995 21.8629 16 22.227 16 22.6171V37.3827C16 37.7727 16.0994 38.1368 16.2617 38.4648L24.699 30.0002L16.2617 21.5349Z" fill="#64646A"/>
<path d="M43.7383 21.5349L35.301 30.0003L43.7383 38.4651C43.9005 38.1371 44 37.7729 44 37.3828V22.6172C44 22.227 43.9005 21.8629 43.7383 21.5349Z" fill="#64646A"/>
</svg>
