<svg fill="none" xmlns="http://www.w3.org/2000/svg">
	<symbol id="cart" viewBox="0 0 24 24">
		<path fill="currentColor" d="M8.13201 2.50391L4.42001 8.99991H3.00001C2.68801 8.99991 2.39501 9.14591 2.20501 9.39291C2.01601 9.64091 1.95301 9.96291 2.03501 10.2629L4.83401 20.5259C5.07001 21.3939 5.86401 21.9999 6.76401 21.9999H17.237C18.135 21.9999 18.929 21.3949 19.167 20.5249L21.966 10.2619C22.048 9.96191 21.986 9.63991 21.796 9.39191C21.605 9.14591 21.312 8.99991 21 8.99991H19.58L15.868 2.50391L14.132 3.49591L17.277 8.99991H6.72301L9.86801 3.49591L8.13201 2.50391ZM14 12.9999H16V17.9999H14V12.9999ZM8.00001 12.9999H10V17.9999H8.00001V12.9999Z" />
	</symbol>

	<symbol id="star-contrast" viewBox="0 0 28 28"> 
		<path fill="currentColor" d="M22.385 17.39C22.2644 17.5136 22.1722 17.662 22.115 17.825C22.0772 17.9979 22.0772 18.177 22.115 18.35L23 24.245C23.0789 24.705 23.0269 25.178 22.85 25.61C22.6703 26.0464 22.3681 26.4215 21.98 26.69C21.5952 26.9604 21.1441 27.1211 20.675 27.155C20.2077 27.1741 19.7446 27.0597 19.34 26.825L14.555 24.17C14.3948 24.0798 14.2138 24.0333 14.03 24.035C13.8414 24.0334 13.6556 24.0799 13.49 24.17L8.73499 26.825C8.32057 27.047 7.85487 27.1557 7.38499 27.14C7.03713 27.1172 6.69785 27.0221 6.38886 26.8607C6.07987 26.6993 5.80796 26.4752 5.59054 26.2027C5.37311 25.9302 5.21496 25.6154 5.12618 25.2783C5.03741 24.9411 5.01997 24.5892 5.07499 24.245L6.03499 18.35C6.08011 18.1779 6.08011 17.9971 6.03499 17.825C5.98896 17.6604 5.90111 17.5105 5.77999 17.39L1.56499 13.145C1.25042 12.8129 1.02807 12.4044 0.919988 11.96C0.800169 11.518 0.800169 11.052 0.919988 10.61C1.08599 10.1743 1.36569 9.79099 1.72999 9.49998C2.08185 9.20374 2.50651 9.00694 2.95999 8.92998L8.49499 8.08998C8.6736 8.05783 8.84274 7.98607 8.98999 7.87998C9.13598 7.7686 9.25408 7.62482 9.33499 7.45998L11.735 2.29998C11.9339 1.87007 12.2513 1.50582 12.65 1.24998C13.0514 0.995174 13.517 0.859863 13.9925 0.859863C14.4679 0.859863 14.9336 0.995174 15.335 1.24998C15.7337 1.50582 16.0511 1.87007 16.25 2.29998L18.665 7.45998C18.7411 7.62784 18.8601 7.77269 19.01 7.87998C19.1556 7.98897 19.3254 8.06102 19.505 8.08998L25.04 8.92998C25.4935 9.00694 25.9181 9.20374 26.27 9.49998C26.6145 9.80259 26.8731 10.1906 27.02 10.625C27.1398 11.067 27.1398 11.533 27.02 11.975C26.9119 12.4194 26.6896 12.8279 26.375 13.16L22.385 17.39Z" />
	</symbol>

	<symbol id="star" viewBox="0 0 20 20">
		<path fill="currentColor" d="M19.947 7.179C19.818 6.801 19.477 6.534 19.079 6.503L13.378 6.05L10.911 0.589C10.75 0.23 10.393 0 9.99999 0C9.60699 0 9.24999 0.23 9.08899 0.588L6.62199 6.05L0.920994 6.503C0.529994 6.534 0.192994 6.791 0.0599941 7.16C-0.0730059 7.529 0.0209942 7.942 0.301994 8.216L4.51499 12.323L3.02499 18.775C2.93299 19.174 3.09399 19.589 3.43099 19.822C3.60299 19.94 3.80099 20 3.99999 20C4.19299 20 4.38699 19.944 4.55499 19.832L9.99999 16.202L15.445 19.832C15.793 20.064 16.25 20.055 16.59 19.808C16.928 19.561 17.077 19.128 16.962 18.726L15.133 12.326L19.669 8.244C19.966 7.976 20.075 7.558 19.947 7.179Z" />
	</symbol>

	<symbol id="arrow-left" viewBox="0 0 30 30">
		<path fill="none" stroke="currentColor" d="M23.75 15H6.25" stroke-width="3" stroke-linecap="round" stroke-linejoin="round"/>
		<path fill="none" stroke="currentColor" d="M15 6.25L6.25 15L15 23.75" stroke-width="3" stroke-linecap="round" stroke-linejoin="round"/>
	</symbol>

	<symbol id="arrow-right" viewBox="0 0 30 30">
		<path fill="none" stroke="currentColor" d="M6.25 15H23.75" stroke-width="3" stroke-linecap="round" stroke-linejoin="round"/>
		<path fill="none" stroke="currentColor" d="M15 6.25L23.75 15L15 23.75" stroke-width="3" stroke-linecap="round" stroke-linejoin="round"/>
	</symbol>
</svg>