<svg fill="none" xmlns="http://www.w3.org/2000/svg">
	<symbol id="cart" viewBox="0 0 24 24">
		<path fill="currentColor" d="M8.13201 2.50391L4.42001 8.99991H3.00001C2.68801 8.99991 2.39501 9.14591 2.20501 9.39291C2.01601 9.64091 1.95301 9.96291 2.03501 10.2629L4.83401 20.5259C5.07001 21.3939 5.86401 21.9999 6.76401 21.9999H17.237C18.135 21.9999 18.929 21.3949 19.167 20.5249L21.966 10.2619C22.048 9.96191 21.986 9.63991 21.796 9.39191C21.605 9.14591 21.312 8.99991 21 8.99991H19.58L15.868 2.50391L14.132 3.49591L17.277 8.99991H6.72301L9.86801 3.49591L8.13201 2.50391ZM14 12.9999H16V17.9999H14V12.9999ZM8.00001 12.9999H10V17.9999H8.00001V12.9999Z" />
	</symbol>

	<symbol id="star-contrast" viewBox="0 0 28 28"> 
		<path fill="currentColor" d="M22.385 17.39C22.2644 17.5136 22.1722 17.662 22.115 17.825C22.0772 17.9979 22.0772 18.177 22.115 18.35L23 24.245C23.0789 24.705 23.0269 25.178 22.85 25.61C22.6703 26.0464 22.3681 26.4215 21.98 26.69C21.5952 26.9604 21.1441 27.1211 20.675 27.155C20.2077 27.1741 19.7446 27.0597 19.34 26.825L14.555 24.17C14.3948 24.0798 14.2138 24.0333 14.03 24.035C13.8414 24.0334 13.6556 24.0799 13.49 24.17L8.73499 26.825C8.32057 27.047 7.85487 27.1557 7.38499 27.14C7.03713 27.1172 6.69785 27.0221 6.38886 26.8607C6.07987 26.6993 5.80796 26.4752 5.59054 26.2027C5.37311 25.9302 5.21496 25.6154 5.12618 25.2783C5.03741 24.9411 5.01997 24.5892 5.07499 24.245L6.03499 18.35C6.08011 18.1779 6.08011 17.9971 6.03499 17.825C5.98896 17.6604 5.90111 17.5105 5.77999 17.39L1.56499 13.145C1.25042 12.8129 1.02807 12.4044 0.919988 11.96C0.800169 11.518 0.800169 11.052 0.919988 10.61C1.08599 10.1743 1.36569 9.79099 1.72999 9.49998C2.08185 9.20374 2.50651 9.00694 2.95999 8.92998L8.49499 8.08998C8.6736 8.05783 8.84274 7.98607 8.98999 7.87998C9.13598 7.7686 9.25408 7.62482 9.33499 7.45998L11.735 2.29998C11.9339 1.87007 12.2513 1.50582 12.65 1.24998C13.0514 0.995174 13.517 0.859863 13.9925 0.859863C14.4679 0.859863 14.9336 0.995174 15.335 1.24998C15.7337 1.50582 16.0511 1.87007 16.25 2.29998L18.665 7.45998C18.7411 7.62784 18.8601 7.77269 19.01 7.87998C19.1556 7.98897 19.3254 8.06102 19.505 8.08998L25.04 8.92998C25.4935 9.00694 25.9181 9.20374 26.27 9.49998C26.6145 9.80259 26.8731 10.1906 27.02 10.625C27.1398 11.067 27.1398 11.533 27.02 11.975C26.9119 12.4194 26.6896 12.8279 26.375 13.16L22.385 17.39Z" />
	</symbol>

	<symbol id="star" viewBox="0 0 20 20">
		<path fill="currentColor" d="M19.947 7.179C19.818 6.801 19.477 6.534 19.079 6.503L13.378 6.05L10.911 0.589C10.75 0.23 10.393 0 9.99999 0C9.60699 0 9.24999 0.23 9.08899 0.588L6.62199 6.05L0.920994 6.503C0.529994 6.534 0.192994 6.791 0.0599941 7.16C-0.0730059 7.529 0.0209942 7.942 0.301994 8.216L4.51499 12.323L3.02499 18.775C2.93299 19.174 3.09399 19.589 3.43099 19.822C3.60299 19.94 3.80099 20 3.99999 20C4.19299 20 4.38699 19.944 4.55499 19.832L9.99999 16.202L15.445 19.832C15.793 20.064 16.25 20.055 16.59 19.808C16.928 19.561 17.077 19.128 16.962 18.726L15.133 12.326L19.669 8.244C19.966 7.976 20.075 7.558 19.947 7.179Z" />
	</symbol>

	<symbol id="arrow-left" viewBox="0 0 30 30">
		<path fill="none" stroke="currentColor" d="M23.75 15H6.25" stroke-width="3" stroke-linecap="round" stroke-linejoin="round"/>
		<path fill="none" stroke="currentColor" d="M15 6.25L6.25 15L15 23.75" stroke-width="3" stroke-linecap="round" stroke-linejoin="round"/>
	</symbol>

	<symbol id="arrow-right" viewBox="0 0 30 30">
		<path fill="none" stroke="currentColor" d="M6.25 15H23.75" stroke-width="3" stroke-linecap="round" stroke-linejoin="round"/>
		<path fill="none" stroke="currentColor" d="M15 6.25L23.75 15L15 23.75" stroke-width="3" stroke-linecap="round" stroke-linejoin="round"/>
	</symbol>

	<symbol id="mail" viewBox="0 0 28 20">
		<path fill="currentColor" d="M18.1429 11.1621L15.7979 13.5151C14.8469 14.4694 13.1737 14.49 12.2021 13.5151L9.85699 11.1621L1.43423 19.6122C1.74776 19.7572 2.09344 19.8437 2.46094 19.8437H25.5391C25.9066 19.8437 26.2521 19.7573 26.5655 19.6123L18.1429 11.1621Z" />
		<path fill="currentColor" d="M25.5391 0.15625H2.46094C2.09344 0.15625 1.74776 0.242766 1.43434 0.387742L10.4346 9.41791C10.4352 9.41851 10.436 9.41862 10.4366 9.41922C10.4372 9.41982 10.4373 9.42064 10.4373 9.42064L13.3638 12.3568C13.6746 12.6677 14.3255 12.6677 14.6363 12.3568L17.5622 9.42113C17.5622 9.42113 17.5629 9.41982 17.5635 9.41922C17.5635 9.41922 17.5649 9.41851 17.5655 9.41791L26.5655 0.387688C26.2521 0.242656 25.9066 0.15625 25.5391 0.15625Z" />
		<path fill="currentColor" d="M0.261734 1.53491C0.0995312 1.86293 0 2.22704 0 2.61707V17.3827C0 17.7727 0.0994219 18.1368 0.26168 18.4648L8.69903 10.0002L0.261734 1.53491Z" />
		<path fill="currentColor" d="M27.7383 1.53491L19.301 10.0003L27.7383 18.4651C27.9005 18.1371 28 17.7729 28 17.3828V2.61718C28 2.22704 27.9005 1.86293 27.7383 1.53491Z" />
	</symbol>

	<symbol id="call" viewBox="0 0 26 26">
		<path fill="currentColor" d="M20.7082 15.9747C19.8686 15.7941 19.2044 16.1839 18.6162 16.5244C18.0139 16.8752 16.8686 17.8043 16.2121 17.5666C12.851 16.1827 9.68986 13.2408 8.32142 9.86621C8.08025 9.19571 9.005 8.04313 9.35324 7.43371C9.69115 6.84377 10.0729 6.17327 9.8988 5.32736C9.74145 4.5672 7.70621 1.97747 6.98654 1.2693C6.5119 0.801508 6.02566 0.544221 5.52654 0.502633C3.64994 0.422071 1.55409 2.92605 1.18651 3.52507C0.265624 4.8024 0.270787 6.50203 1.20199 8.5629C3.44616 14.0984 11.934 22.4523 17.4902 24.7808C18.5156 25.2603 19.4532 25.5007 20.2955 25.5007C21.1196 25.5007 21.8535 25.2707 22.4843 24.8147C22.9601 24.5404 25.5667 22.3406 25.4984 20.4136C25.4571 19.9223 25.2005 19.4312 24.7388 18.9556C24.0358 18.2292 21.4627 16.1333 20.7082 15.9747Z" />
	</symbol>

	<symbol id="facebook" viewBox="0 0 12 24">
		<path fill="currentColor" d="M7.74624 23.2462V13.0012H11.2025L11.7162 8.98994H7.74624V6.43494C7.74624 5.27744 8.06874 4.48494 9.72999 4.48494H11.835V0.908693C10.8112 0.798693 9.78124 0.746193 8.75124 0.749943C5.69624 0.749943 3.59874 2.61494 3.59874 6.03869V8.98244H0.164993V12.9937H3.60624V23.2462H7.74624Z" />
	</symbol>

	<symbol id="instagram" viewBox="0 0 24 24">
		<path fill="currentColor" d="M23.1837 7.38132C23.17 6.43507 22.995 5.49632 22.66 4.61132C22.0737 3.10007 20.88 1.90507 19.3687 1.32007C18.495 0.991319 17.5712 0.815068 16.6362 0.795068C15.4337 0.741318 15.0525 0.726318 12 0.726318C8.9475 0.726318 8.55625 0.726318 7.3625 0.795068C6.42875 0.815068 5.505 0.991319 4.63125 1.32007C3.12 1.90507 1.925 3.10007 1.34 4.61132C1.01125 5.48507 0.833746 6.40882 0.816246 7.34257C0.762496 8.54632 0.746246 8.92757 0.746246 11.9801C0.746246 15.0326 0.746246 15.4226 0.816246 16.6176C0.834996 17.5526 1.01125 18.4751 1.34 19.3513C1.92625 20.8613 3.12 22.0563 4.6325 22.6413C5.5025 22.9813 6.42625 23.1738 7.36375 23.2038C8.5675 23.2576 8.94875 23.2738 12.0012 23.2738C15.0537 23.2738 15.445 23.2738 16.6387 23.2038C17.5725 23.1851 18.4962 23.0088 19.3712 22.6801C20.8825 22.0938 22.0762 20.8988 22.6625 19.3888C22.9912 18.5138 23.1675 17.5913 23.1862 16.6551C23.24 15.4526 23.2562 15.0713 23.2562 12.0176C23.2537 8.96507 23.2537 8.57757 23.1837 7.38132ZM11.9925 17.7526C8.8 17.7526 6.21375 15.1663 6.21375 11.9738C6.21375 8.78132 8.8 6.19507 11.9925 6.19507C15.1825 6.19507 17.7712 8.78132 17.7712 11.9738C17.7712 15.1663 15.1825 17.7526 11.9925 17.7526ZM18.0012 7.32882C17.255 7.32882 16.6537 6.72632 16.6537 5.98132C16.6537 5.23632 17.255 4.63382 18.0012 4.63382C18.745 4.63382 19.3475 5.23632 19.3475 5.98132C19.3475 6.72632 18.745 7.32882 18.0012 7.32882Z" />
		<path fill="currentColor" d="M11.9925 15.7275C14.0656 15.7275 15.7462 14.0469 15.7462 11.9737C15.7462 9.90058 14.0656 8.21997 11.9925 8.21997C9.91935 8.21997 8.23874 9.90058 8.23874 11.9737C8.23874 14.0469 9.91935 15.7275 11.9925 15.7275Z" />
	</symbol>

	<symbol id="twitter" viewBox="0 0 26 20">
		<path fill="currentColor" d="M22.5412 4.99618C22.5575 5.21493 22.5575 5.43243 22.5575 5.64993C22.5575 12.3062 17.4912 19.9762 8.2325 19.9762C5.38 19.9762 2.73 19.1499 0.5 17.7149C0.905 17.7612 1.295 17.7774 1.71625 17.7774C4.07 17.7774 6.23625 16.9824 7.9675 15.6262C5.75375 15.5799 3.89875 14.1299 3.25875 12.1349C3.57 12.1812 3.8825 12.2124 4.21 12.2124C4.66125 12.2124 5.115 12.1499 5.53625 12.0412C3.2275 11.5737 1.49875 9.54743 1.49875 7.09993V7.03743C2.17 7.41118 2.94875 7.64493 3.77375 7.67618C2.4175 6.77368 1.52875 5.22993 1.52875 3.48368C1.52875 2.54868 1.7775 1.69118 2.21375 0.943682C4.6925 3.99743 8.41875 5.99368 12.5963 6.21243C12.5188 5.83743 12.4712 5.44868 12.4712 5.05868C12.4712 2.28368 14.7162 0.0236816 17.5062 0.0236816C18.9562 0.0236816 20.265 0.631181 21.185 1.61368C22.3225 1.39493 23.4125 0.973681 24.38 0.397431C24.0063 1.56618 23.21 2.54868 22.1663 3.17243C23.18 3.06243 24.1625 2.78243 25.065 2.39243C24.38 3.38993 23.5237 4.27868 22.5412 4.99618Z" />
	</symbol>

	<symbol id="linkedin" viewBox="0 0 24 24">
		<path fill="currentColor" d="M3.22874 5.99637C4.73924 5.99637 5.96374 4.77187 5.96374 3.26137C5.96374 1.75087 4.73924 0.526367 3.22874 0.526367C1.71824 0.526367 0.493744 1.75087 0.493744 3.26137C0.493744 4.77187 1.71824 5.99637 3.22874 5.99637Z" />
		<path fill="currentColor" d="M8.54624 8.06885V23.2426H13.2575V15.7388C13.2575 13.7588 13.63 11.8413 16.085 11.8413C18.5062 11.8413 18.5362 14.1051 18.5362 15.8638V23.2438H23.25V14.9226C23.25 10.8351 22.37 7.69385 17.5925 7.69385C15.2987 7.69385 13.7612 8.9526 13.1325 10.1438H13.0687V8.06885H8.54624ZM0.868744 8.06885H5.58749V23.2426H0.868744V8.06885Z" />
	</symbol>
</svg>
